# xmcd CD database file
# Copyright (C) 1993-1998 Ti Kan
#
# Track frame offsets:
#	150
#	22134
#	47109
#	72148
#	87884
#	110922
#	132345
#	147610
#	172447
#	185386
#
# Disc length: 2822 seconds
#
# Revision: 1
# Processed by: cddbd v1.4b41PL1 Copyright (c) Steve Scherf et al.
# Submitted via: CDValet v3.31 - Copyright (c) 1997 Greg Leichner
#
DISCID=9e0b040a
DTITLE=Boys II Men - Evolución
DYEAR=1900
DGENRE=
TTITLE0=4 Estaciones De Soledad
TTITLE1=A Mi Me Va Bien
TTITLE2=Te Doy Mi Amor
TTITLE3=La Chica De La Revista
TTITLE4=Una Canción Para Mamá
TTITLE5=Yo Te Voy A Amar
TTITLE6=No Dejemos Que Muera El Amor
TTITLE7=Me Rindo Ante Ti
TTITLE8=Yesterday
TTITLE9=Al Final Del Camino
EXTD=
EXTT0=
EXTT1=
EXTT2=
EXTT3=
EXTT4=
EXTT5=
EXTT6=
EXTT7=
EXTT8=
EXTT9=
PLAYORDER=
